<svg width="162" height="52" viewBox="0 0 162 52" fill="none" xmlns="http://www.w3.org/2000/svg">
<path d="M1.75656 32V20.48H3.42856V30.424H8.64456V32H1.75656ZM13.8348 32.24C12.9761 32.24 12.2215 32.0533 11.5708 31.68C10.9255 31.3013 10.4215 30.776 10.0588 30.104C9.70148 29.4267 9.52281 28.6427 9.52281 27.752C9.52281 26.808 9.69881 25.9893 10.0508 25.296C10.4081 24.6027 10.9041 24.0667 11.5388 23.688C12.1735 23.3093 12.9121 23.12 13.7548 23.12C14.6348 23.12 15.3841 23.3253 16.0028 23.736C16.6215 24.1413 17.0828 24.72 17.3868 25.472C17.6961 26.224 17.8188 27.1173 17.7548 28.152H16.0828V27.544C16.0721 26.5413 15.8801 25.8 15.5068 25.32C15.1388 24.84 14.5761 24.6 13.8188 24.6C12.9815 24.6 12.3521 24.864 11.9308 25.392C11.5095 25.92 11.2988 26.6827 11.2988 27.68C11.2988 28.6293 11.5095 29.3653 11.9308 29.888C12.3521 30.4053 12.9601 30.664 13.7548 30.664C14.2775 30.664 14.7281 30.5467 15.1068 30.312C15.4908 30.072 15.7895 29.7307 16.0028 29.288L17.6428 29.808C17.3068 30.5813 16.7975 31.1813 16.1148 31.608C15.4321 32.0293 14.6721 32.24 13.8348 32.24ZM10.7548 28.152V26.848H16.9228V28.152H10.7548ZM21.8334 32.24C21.1934 32.24 20.6574 32.1227 20.2254 31.888C19.7934 31.648 19.4654 31.3333 19.2414 30.944C19.0228 30.5493 18.9134 30.1173 18.9134 29.648C18.9134 29.2107 18.9908 28.8267 19.1454 28.496C19.3001 28.1653 19.5294 27.8853 19.8334 27.656C20.1374 27.4213 20.5108 27.232 20.9534 27.088C21.3374 26.976 21.7721 26.8773 22.2574 26.792C22.7428 26.7067 23.2521 26.6267 23.7854 26.552C24.3241 26.4773 24.8574 26.4027 25.3854 26.328L24.7774 26.664C24.7881 25.9867 24.6441 25.4853 24.3454 25.16C24.0521 24.8293 23.5454 24.664 22.8254 24.664C22.3721 24.664 21.9561 24.7707 21.5774 24.984C21.1988 25.192 20.9348 25.5387 20.7854 26.024L19.2254 25.544C19.4388 24.8027 19.8441 24.2133 20.4414 23.776C21.0441 23.3387 21.8441 23.12 22.8414 23.12C23.6148 23.12 24.2868 23.2533 24.8574 23.52C25.4334 23.7813 25.8548 24.1973 26.1214 24.768C26.2601 25.0507 26.3454 25.3493 26.3774 25.664C26.4094 25.9787 26.4254 26.3173 26.4254 26.68V32H24.9454V30.024L25.2334 30.28C24.8761 30.9413 24.4201 31.4347 23.8654 31.76C23.3161 32.08 22.6388 32.24 21.8334 32.24ZM22.1294 30.872C22.6041 30.872 23.0121 30.7893 23.3534 30.624C23.6948 30.4533 23.9694 30.2373 24.1774 29.976C24.3854 29.7147 24.5214 29.4427 24.5854 29.16C24.6761 28.904 24.7268 28.616 24.7374 28.296C24.7534 27.976 24.7614 27.72 24.7614 27.528L25.3054 27.728C24.7774 27.808 24.2974 27.88 23.8654 27.944C23.4334 28.008 23.0414 28.072 22.6894 28.136C22.3428 28.1947 22.0334 28.2667 21.7614 28.352C21.5321 28.432 21.3268 28.528 21.1454 28.64C20.9694 28.752 20.8281 28.888 20.7214 29.048C20.6201 29.208 20.5694 29.4027 20.5694 29.632C20.5694 29.856 20.6254 30.064 20.7374 30.256C20.8494 30.4427 21.0201 30.592 21.2494 30.704C21.4788 30.816 21.7721 30.872 22.1294 30.872ZM30.5263 32L27.3903 23.36H29.0783L31.3743 29.904L33.6703 23.36H35.3583L32.2223 32H30.5263ZM40.3192 32.24C39.4605 32.24 38.7059 32.0533 38.0552 31.68C37.4099 31.3013 36.9059 30.776 36.5432 30.104C36.1859 29.4267 36.0072 28.6427 36.0072 27.752C36.0072 26.808 36.1832 25.9893 36.5352 25.296C36.8925 24.6027 37.3885 24.0667 38.0232 23.688C38.6579 23.3093 39.3965 23.12 40.2392 23.12C41.1192 23.12 41.8685 23.3253 42.4872 23.736C43.1059 24.1413 43.5672 24.72 43.8712 25.472C44.1805 26.224 44.3032 27.1173 44.2392 28.152H42.5672V27.544C42.5565 26.5413 42.3645 25.8 41.9912 25.32C41.6232 24.84 41.0605 24.6 40.3032 24.6C39.4659 24.6 38.8365 24.864 38.4152 25.392C37.9939 25.92 37.7832 26.6827 37.7832 27.68C37.7832 28.6293 37.9939 29.3653 38.4152 29.888C38.8365 30.4053 39.4445 30.664 40.2392 30.664C40.7619 30.664 41.2125 30.5467 41.5912 30.312C41.9752 30.072 42.2739 29.7307 42.4872 29.288L44.1272 29.808C43.7912 30.5813 43.2819 31.1813 42.5992 31.608C41.9165 32.0293 41.1565 32.24 40.3192 32.24ZM37.2392 28.152V26.848H43.4072V28.152H37.2392ZM51.6772 32.24C51.0372 32.24 50.5012 32.1227 50.0692 31.888C49.6372 31.648 49.3092 31.3333 49.0852 30.944C48.8665 30.5493 48.7572 30.1173 48.7572 29.648C48.7572 29.2107 48.8345 28.8267 48.9892 28.496C49.1439 28.1653 49.3732 27.8853 49.6772 27.656C49.9812 27.4213 50.3545 27.232 50.7972 27.088C51.1812 26.976 51.6159 26.8773 52.1012 26.792C52.5865 26.7067 53.0959 26.6267 53.6292 26.552C54.1679 26.4773 54.7012 26.4027 55.2292 26.328L54.6212 26.664C54.6319 25.9867 54.4879 25.4853 54.1892 25.16C53.8959 24.8293 53.3892 24.664 52.6692 24.664C52.2159 24.664 51.7999 24.7707 51.4212 24.984C51.0425 25.192 50.7785 25.5387 50.6292 26.024L49.0692 25.544C49.2825 24.8027 49.6879 24.2133 50.2852 23.776C50.8879 23.3387 51.6879 23.12 52.6852 23.12C53.4585 23.12 54.1305 23.2533 54.7012 23.52C55.2772 23.7813 55.6985 24.1973 55.9652 24.768C56.1039 25.0507 56.1892 25.3493 56.2212 25.664C56.2532 25.9787 56.2692 26.3173 56.2692 26.68V32H54.7892V30.024L55.0772 30.28C54.7199 30.9413 54.2639 31.4347 53.7092 31.76C53.1599 32.08 52.4825 32.24 51.6772 32.24ZM51.9732 30.872C52.4479 30.872 52.8559 30.7893 53.1972 30.624C53.5385 30.4533 53.8132 30.2373 54.0212 29.976C54.2292 29.7147 54.3652 29.4427 54.4292 29.16C54.5199 28.904 54.5705 28.616 54.5812 28.296C54.5972 27.976 54.6052 27.72 54.6052 27.528L55.1492 27.728C54.6212 27.808 54.1412 27.88 53.7092 27.944C53.2772 28.008 52.8852 28.072 52.5332 28.136C52.1865 28.1947 51.8772 28.2667 51.6052 28.352C51.3759 28.432 51.1705 28.528 50.9892 28.64C50.8132 28.752 50.6719 28.888 50.5652 29.048C50.4639 29.208 50.4132 29.4027 50.4132 29.632C50.4132 29.856 50.4692 30.064 50.5812 30.256C50.6932 30.4427 50.8639 30.592 51.0932 30.704C51.3225 30.816 51.6159 30.872 51.9732 30.872ZM71.9017 32L71.9097 26.616C71.9097 25.992 71.7497 25.5067 71.4297 25.16C71.1097 24.808 70.6884 24.632 70.1657 24.632C69.8457 24.632 69.5524 24.7067 69.2857 24.856C69.0244 25 68.811 25.2187 68.6457 25.512C68.4857 25.8 68.4057 26.1627 68.4057 26.6L67.5977 26.192C67.587 25.584 67.715 25.0507 67.9817 24.592C68.2537 24.1333 68.6217 23.7787 69.0857 23.528C69.5497 23.272 70.0697 23.144 70.6457 23.144C71.579 23.144 72.3017 23.424 72.8137 23.984C73.3257 24.544 73.5817 25.288 73.5817 26.216L73.5737 32H71.9017ZM61.5417 32V23.36H63.0297V25.856H63.2217V32H61.5417ZM66.7257 32L66.7337 26.648C66.7337 26.0187 66.5737 25.5253 66.2537 25.168C65.939 24.8107 65.515 24.632 64.9817 24.632C64.4537 24.632 64.027 24.8133 63.7017 25.176C63.3817 25.5387 63.2217 26.0133 63.2217 26.6L62.4217 26.088C62.4217 25.5227 62.5577 25.0187 62.8297 24.576C63.1017 24.1333 63.4697 23.784 63.9337 23.528C64.3977 23.272 64.923 23.144 65.5097 23.144C66.123 23.144 66.6457 23.2747 67.0777 23.536C67.5097 23.792 67.8377 24.152 68.0617 24.616C68.291 25.08 68.4057 25.6187 68.4057 26.232L68.3977 32H66.7257ZM79.3817 32.24C78.523 32.24 77.7684 32.0533 77.1177 31.68C76.4724 31.3013 75.9684 30.776 75.6057 30.104C75.2484 29.4267 75.0697 28.6427 75.0697 27.752C75.0697 26.808 75.2457 25.9893 75.5977 25.296C75.955 24.6027 76.451 24.0667 77.0857 23.688C77.7204 23.3093 78.459 23.12 79.3017 23.12C80.1817 23.12 80.931 23.3253 81.5497 23.736C82.1684 24.1413 82.6297 24.72 82.9337 25.472C83.243 26.224 83.3657 27.1173 83.3017 28.152H81.6297V27.544C81.619 26.5413 81.427 25.8 81.0537 25.32C80.6857 24.84 80.123 24.6 79.3657 24.6C78.5284 24.6 77.899 24.864 77.4777 25.392C77.0564 25.92 76.8457 26.6827 76.8457 27.68C76.8457 28.6293 77.0564 29.3653 77.4777 29.888C77.899 30.4053 78.507 30.664 79.3017 30.664C79.8244 30.664 80.275 30.5467 80.6537 30.312C81.0377 30.072 81.3364 29.7307 81.5497 29.288L83.1897 29.808C82.8537 30.5813 82.3444 31.1813 81.6617 31.608C80.979 32.0293 80.219 32.24 79.3817 32.24ZM76.3017 28.152V26.848H82.4697V28.152H76.3017ZM88.4006 32.232C87.3499 32.232 86.4939 32 85.8326 31.536C85.1712 31.072 84.7659 30.4187 84.6166 29.576L86.3286 29.312C86.4352 29.76 86.6806 30.1147 87.0646 30.376C87.4539 30.632 87.9366 30.76 88.5126 30.76C89.0352 30.76 89.4432 30.6533 89.7366 30.44C90.0352 30.2267 90.1846 29.9333 90.1846 29.56C90.1846 29.3413 90.1312 29.1653 90.0246 29.032C89.9232 28.8933 89.7072 28.7627 89.3766 28.64C89.0459 28.5173 88.5419 28.3653 87.8646 28.184C87.1232 27.992 86.5339 27.7867 86.0966 27.568C85.6646 27.344 85.3552 27.0853 85.1686 26.792C84.9872 26.4933 84.8966 26.1333 84.8966 25.712C84.8966 25.1893 85.0352 24.7333 85.3126 24.344C85.5899 23.9547 85.9792 23.6533 86.4806 23.44C86.9872 23.2267 87.5792 23.12 88.2566 23.12C88.9179 23.12 89.5072 23.224 90.0246 23.432C90.5419 23.64 90.9606 23.936 91.2806 24.32C91.6006 24.6987 91.7926 25.144 91.8566 25.656L90.1446 25.968C90.0859 25.552 89.8912 25.224 89.5606 24.984C89.2299 24.744 88.8006 24.6133 88.2726 24.592C87.7659 24.5707 87.3552 24.656 87.0406 24.848C86.7259 25.0347 86.5686 25.2933 86.5686 25.624C86.5686 25.816 86.6272 25.9787 86.7446 26.112C86.8672 26.2453 87.1019 26.3733 87.4486 26.496C87.7952 26.6187 88.3072 26.7653 88.9846 26.936C89.7099 27.1227 90.2859 27.3307 90.7126 27.56C91.1392 27.784 91.4432 28.0533 91.6246 28.368C91.8112 28.6773 91.9046 29.0533 91.9046 29.496C91.9046 30.3493 91.5926 31.0187 90.9686 31.504C90.3499 31.9893 89.4939 32.232 88.4006 32.232ZM96.9787 32.232C95.928 32.232 95.072 32 94.4107 31.536C93.7494 31.072 93.344 30.4187 93.1947 29.576L94.9067 29.312C95.0134 29.76 95.2587 30.1147 95.6427 30.376C96.032 30.632 96.5147 30.76 97.0907 30.76C97.6134 30.76 98.0214 30.6533 98.3147 30.44C98.6134 30.2267 98.7627 29.9333 98.7627 29.56C98.7627 29.3413 98.7094 29.1653 98.6027 29.032C98.5014 28.8933 98.2854 28.7627 97.9547 28.64C97.624 28.5173 97.12 28.3653 96.4427 28.184C95.7014 27.992 95.112 27.7867 94.6747 27.568C94.2427 27.344 93.9334 27.0853 93.7467 26.792C93.5654 26.4933 93.4747 26.1333 93.4747 25.712C93.4747 25.1893 93.6134 24.7333 93.8907 24.344C94.168 23.9547 94.5574 23.6533 95.0587 23.44C95.5654 23.2267 96.1574 23.12 96.8347 23.12C97.496 23.12 98.0854 23.224 98.6027 23.432C99.12 23.64 99.5387 23.936 99.8587 24.32C100.179 24.6987 100.371 25.144 100.435 25.656L98.7227 25.968C98.664 25.552 98.4694 25.224 98.1387 24.984C97.808 24.744 97.3787 24.6133 96.8507 24.592C96.344 24.5707 95.9334 24.656 95.6187 24.848C95.304 25.0347 95.1467 25.2933 95.1467 25.624C95.1467 25.816 95.2054 25.9787 95.3227 26.112C95.4454 26.2453 95.68 26.3733 96.0267 26.496C96.3734 26.6187 96.8854 26.7653 97.5627 26.936C98.288 27.1227 98.864 27.3307 99.2907 27.56C99.7174 27.784 100.021 28.0533 100.203 28.368C100.389 28.6773 100.483 29.0533 100.483 29.496C100.483 30.3493 100.171 31.0187 99.5467 31.504C98.928 31.9893 98.072 32.232 96.9787 32.232ZM104.693 32.24C104.053 32.24 103.517 32.1227 103.085 31.888C102.653 31.648 102.325 31.3333 102.101 30.944C101.882 30.5493 101.773 30.1173 101.773 29.648C101.773 29.2107 101.85 28.8267 102.005 28.496C102.159 28.1653 102.389 27.8853 102.693 27.656C102.997 27.4213 103.37 27.232 103.813 27.088C104.197 26.976 104.631 26.8773 105.117 26.792C105.602 26.7067 106.111 26.6267 106.645 26.552C107.183 26.4773 107.717 26.4027 108.245 26.328L107.637 26.664C107.647 25.9867 107.503 25.4853 107.205 25.16C106.911 24.8293 106.405 24.664 105.685 24.664C105.231 24.664 104.815 24.7707 104.437 24.984C104.058 25.192 103.794 25.5387 103.645 26.024L102.085 25.544C102.298 24.8027 102.703 24.2133 103.301 23.776C103.903 23.3387 104.703 23.12 105.701 23.12C106.474 23.12 107.146 23.2533 107.717 23.52C108.293 23.7813 108.714 24.1973 108.981 24.768C109.119 25.0507 109.205 25.3493 109.237 25.664C109.269 25.9787 109.285 26.3173 109.285 26.68V32H107.805V30.024L108.093 30.28C107.735 30.9413 107.279 31.4347 106.725 31.76C106.175 32.08 105.498 32.24 104.693 32.24ZM104.989 30.872C105.463 30.872 105.871 30.7893 106.213 30.624C106.554 30.4533 106.829 30.2373 107.037 29.976C107.245 29.7147 107.381 29.4427 107.445 29.16C107.535 28.904 107.586 28.616 107.597 28.296C107.613 27.976 107.621 27.72 107.621 27.528L108.165 27.728C107.637 27.808 107.157 27.88 106.725 27.944C106.293 28.008 105.901 28.072 105.549 28.136C105.202 28.1947 104.893 28.2667 104.621 28.352C104.391 28.432 104.186 28.528 104.005 28.64C103.829 28.752 103.687 28.888 103.581 29.048C103.479 29.208 103.429 29.4027 103.429 29.632C103.429 29.856 103.485 30.064 103.597 30.256C103.709 30.4427 103.879 30.592 104.109 30.704C104.338 30.816 104.631 30.872 104.989 30.872ZM114.922 36.08C114.458 36.08 114.008 36.008 113.57 35.864C113.138 35.72 112.744 35.5067 112.386 35.224C112.029 34.9467 111.733 34.6027 111.498 34.192L113.042 33.408C113.229 33.776 113.496 34.0453 113.842 34.216C114.189 34.3867 114.554 34.472 114.938 34.472C115.413 34.472 115.818 34.3867 116.154 34.216C116.49 34.0507 116.744 33.8 116.914 33.464C117.09 33.128 117.176 32.712 117.17 32.216V29.8H117.37V23.36H118.85V32.232C118.85 32.4613 118.842 32.68 118.826 32.888C118.81 33.096 118.781 33.304 118.738 33.512C118.616 34.0933 118.381 34.5733 118.034 34.952C117.693 35.3307 117.256 35.6133 116.722 35.8C116.194 35.9867 115.594 36.08 114.922 36.08ZM114.794 32.24C113.989 32.24 113.293 32.04 112.706 31.64C112.125 31.24 111.674 30.696 111.354 30.008C111.04 29.3147 110.882 28.536 110.882 27.672C110.882 26.8027 111.042 26.0267 111.362 25.344C111.682 24.656 112.136 24.1147 112.722 23.72C113.314 23.32 114.016 23.12 114.826 23.12C115.642 23.12 116.328 23.32 116.882 23.72C117.442 24.1147 117.864 24.656 118.146 25.344C118.434 26.032 118.578 26.808 118.578 27.672C118.578 28.536 118.434 29.312 118.146 30C117.858 30.688 117.434 31.2347 116.874 31.64C116.314 32.04 115.621 32.24 114.794 32.24ZM115.026 30.728C115.576 30.728 116.024 30.5973 116.37 30.336C116.717 30.0747 116.97 29.7147 117.13 29.256C117.29 28.7973 117.37 28.2693 117.37 27.672C117.37 27.0747 117.288 26.5467 117.122 26.088C116.962 25.6293 116.712 25.272 116.37 25.016C116.034 24.76 115.605 24.632 115.082 24.632C114.528 24.632 114.072 24.768 113.714 25.04C113.357 25.312 113.09 25.6773 112.914 26.136C112.744 26.5947 112.658 27.1067 112.658 27.672C112.658 28.2427 112.744 28.76 112.914 29.224C113.09 29.6827 113.352 30.048 113.698 30.32C114.05 30.592 114.493 30.728 115.026 30.728ZM124.929 32.24C124.07 32.24 123.315 32.0533 122.665 31.68C122.019 31.3013 121.515 30.776 121.153 30.104C120.795 29.4267 120.617 28.6427 120.617 27.752C120.617 26.808 120.793 25.9893 121.145 25.296C121.502 24.6027 121.998 24.0667 122.633 23.688C123.267 23.3093 124.006 23.12 124.849 23.12C125.729 23.12 126.478 23.3253 127.097 23.736C127.715 24.1413 128.177 24.72 128.481 25.472C128.79 26.224 128.913 27.1173 128.849 28.152H127.177V27.544C127.166 26.5413 126.974 25.8 126.601 25.32C126.233 24.84 125.67 24.6 124.913 24.6C124.075 24.6 123.446 24.864 123.025 25.392C122.603 25.92 122.393 26.6827 122.393 27.68C122.393 28.6293 122.603 29.3653 123.025 29.888C123.446 30.4053 124.054 30.664 124.849 30.664C125.371 30.664 125.822 30.5467 126.201 30.312C126.585 30.072 126.883 29.7307 127.097 29.288L128.737 29.808C128.401 30.5813 127.891 31.1813 127.209 31.608C126.526 32.0293 125.766 32.24 124.929 32.24ZM121.849 28.152V26.848H128.017V28.152H121.849Z" fill="#6366F1"/>
<path d="M149.293 31.293L150.707 32.707L157.414 26L150.707 19.293L149.293 20.707L153.586 25H144V27H153.586L149.293 31.293Z" fill="#6366F1"/>
</svg>
