<svg width="183" height="52" viewBox="0 0 183 52" fill="none" xmlns="http://www.w3.org/2000/svg">
<path d="M5.71006 32.24C4.8834 32.24 4.13673 32.0987 3.47006 31.816C2.80873 31.528 2.26206 31.12 1.83006 30.592C1.4034 30.0587 1.12606 29.4267 0.998063 28.696L2.74206 28.432C2.91806 29.136 3.28606 29.6853 3.84606 30.08C4.40606 30.4693 5.0594 30.664 5.80606 30.664C6.27006 30.664 6.69673 30.592 7.08606 30.448C7.4754 30.2987 7.7874 30.088 8.02206 29.816C8.26206 29.5387 8.38206 29.208 8.38206 28.824C8.38206 28.616 8.34473 28.432 8.27006 28.272C8.20073 28.112 8.10206 27.9733 7.97406 27.856C7.8514 27.7333 7.6994 27.6293 7.51806 27.544C7.34206 27.4533 7.1474 27.376 6.93406 27.312L3.98206 26.44C3.69406 26.3547 3.40073 26.2453 3.10206 26.112C2.8034 25.9733 2.52873 25.7947 2.27806 25.576C2.03273 25.352 1.83273 25.0773 1.67806 24.752C1.5234 24.4213 1.44606 24.0213 1.44606 23.552C1.44606 22.8427 1.6274 22.2427 1.99006 21.752C2.35806 21.256 2.85406 20.8827 3.47806 20.632C4.10206 20.376 4.80073 20.248 5.57406 20.248C6.35273 20.2587 7.04873 20.3973 7.66206 20.664C8.28073 20.9307 8.79273 21.3147 9.19806 21.816C9.60873 22.312 9.8914 22.9147 10.0461 23.624L8.25406 23.928C8.17406 23.496 8.0034 23.1253 7.74206 22.816C7.48073 22.5013 7.16073 22.2613 6.78206 22.096C6.4034 21.9253 5.99273 21.8373 5.55006 21.832C5.1234 21.8213 4.7314 21.8853 4.37406 22.024C4.02206 22.1627 3.7394 22.3573 3.52606 22.608C3.31806 22.8587 3.21406 23.1467 3.21406 23.472C3.21406 23.792 3.3074 24.0507 3.49406 24.248C3.68073 24.4453 3.91006 24.6027 4.18206 24.72C4.4594 24.832 4.73406 24.9253 5.00606 25L7.13406 25.6C7.40073 25.6747 7.70206 25.776 8.03806 25.904C8.3794 26.0267 8.7074 26.2 9.02206 26.424C9.34206 26.648 9.60606 26.9467 9.81406 27.32C10.0221 27.688 10.1261 28.152 10.1261 28.712C10.1261 29.2933 10.0087 29.8053 9.77406 30.248C9.5394 30.6853 9.21673 31.0533 8.80606 31.352C8.40073 31.6453 7.9314 31.8667 7.39806 32.016C6.86473 32.1653 6.30206 32.24 5.71006 32.24ZM15.6629 32.24C14.8043 32.24 14.0496 32.0533 13.3989 31.68C12.7536 31.3013 12.2496 30.776 11.8869 30.104C11.5296 29.4267 11.3509 28.6427 11.3509 27.752C11.3509 26.808 11.5269 25.9893 11.8789 25.296C12.2363 24.6027 12.7323 24.0667 13.3669 23.688C14.0016 23.3093 14.7403 23.12 15.5829 23.12C16.4629 23.12 17.2123 23.3253 17.8309 23.736C18.4496 24.1413 18.9109 24.72 19.2149 25.472C19.5243 26.224 19.6469 27.1173 19.5829 28.152H17.9109V27.544C17.9003 26.5413 17.7083 25.8 17.3349 25.32C16.9669 24.84 16.4043 24.6 15.6469 24.6C14.8096 24.6 14.1803 24.864 13.7589 25.392C13.3376 25.92 13.1269 26.6827 13.1269 27.68C13.1269 28.6293 13.3376 29.3653 13.7589 29.888C14.1803 30.4053 14.7883 30.664 15.5829 30.664C16.1056 30.664 16.5563 30.5467 16.9349 30.312C17.3189 30.072 17.6176 29.7307 17.8309 29.288L19.4709 29.808C19.1349 30.5813 18.6256 31.1813 17.9429 31.608C17.2603 32.0293 16.5003 32.24 15.6629 32.24ZM12.5829 28.152V26.848H18.7509V28.152H12.5829ZM27.2074 32V27.752C27.2074 27.416 27.1781 27.072 27.1194 26.72C27.0661 26.3627 26.9594 26.032 26.7994 25.728C26.6448 25.424 26.4234 25.1787 26.1354 24.992C25.8528 24.8053 25.4821 24.712 25.0234 24.712C24.7248 24.712 24.4421 24.7627 24.1754 24.864C23.9088 24.96 23.6741 25.1173 23.4714 25.336C23.2741 25.5547 23.1168 25.8427 22.9994 26.2C22.8874 26.5573 22.8314 26.992 22.8314 27.504L21.7914 27.112C21.7914 26.328 21.9381 25.6373 22.2314 25.04C22.5248 24.4373 22.9461 23.968 23.4954 23.632C24.0448 23.296 24.7088 23.128 25.4874 23.128C26.0848 23.128 26.5861 23.224 26.9914 23.416C27.3968 23.608 27.7248 23.8613 27.9754 24.176C28.2314 24.4853 28.4261 24.824 28.5594 25.192C28.6928 25.56 28.7834 25.92 28.8314 26.272C28.8794 26.624 28.9034 26.9333 28.9034 27.2V32H27.2074ZM21.1354 32V23.36H22.6314V25.856H22.8314V32H21.1354ZM34.3098 32.24C33.5045 32.24 32.8085 32.04 32.2218 31.64C31.6405 31.24 31.1898 30.696 30.8698 30.008C30.5551 29.3147 30.3978 28.536 30.3978 27.672C30.3978 26.8027 30.5578 26.0267 30.8778 25.344C31.1978 24.656 31.6511 24.1147 32.2378 23.72C32.8298 23.32 33.5311 23.12 34.3418 23.12C35.1578 23.12 35.8431 23.32 36.3978 23.72C36.9578 24.1147 37.3791 24.656 37.6618 25.344C37.9498 26.032 38.0938 26.808 38.0938 27.672C38.0938 28.536 37.9498 29.312 37.6618 30C37.3738 30.688 36.9498 31.2347 36.3898 31.64C35.8298 32.04 35.1365 32.24 34.3098 32.24ZM34.5418 30.728C35.0911 30.728 35.5391 30.5973 35.8858 30.336C36.2325 30.0747 36.4858 29.7147 36.6458 29.256C36.8058 28.7973 36.8858 28.2693 36.8858 27.672C36.8858 27.0747 36.8031 26.5467 36.6378 26.088C36.4778 25.6293 36.2271 25.272 35.8858 25.016C35.5498 24.76 35.1205 24.632 34.5978 24.632C34.0431 24.632 33.5871 24.768 33.2298 25.04C32.8725 25.312 32.6058 25.6773 32.4298 26.136C32.2591 26.5947 32.1738 27.1067 32.1738 27.672C32.1738 28.2427 32.2591 28.76 32.4298 29.224C32.6058 29.6827 32.8671 30.048 33.2138 30.32C33.5658 30.592 34.0085 30.728 34.5418 30.728ZM36.8858 32V25.784H36.6938V20.48H38.3738V32H36.8858ZM46.2553 32.24C45.6153 32.24 45.0793 32.1227 44.6473 31.888C44.2153 31.648 43.8873 31.3333 43.6633 30.944C43.4446 30.5493 43.3353 30.1173 43.3353 29.648C43.3353 29.2107 43.4126 28.8267 43.5673 28.496C43.722 28.1653 43.9513 27.8853 44.2553 27.656C44.5593 27.4213 44.9326 27.232 45.3753 27.088C45.7593 26.976 46.194 26.8773 46.6793 26.792C47.1646 26.7067 47.674 26.6267 48.2073 26.552C48.746 26.4773 49.2793 26.4027 49.8073 26.328L49.1993 26.664C49.21 25.9867 49.066 25.4853 48.7673 25.16C48.474 24.8293 47.9673 24.664 47.2473 24.664C46.794 24.664 46.378 24.7707 45.9993 24.984C45.6206 25.192 45.3566 25.5387 45.2073 26.024L43.6473 25.544C43.8606 24.8027 44.266 24.2133 44.8633 23.776C45.466 23.3387 46.266 23.12 47.2633 23.12C48.0366 23.12 48.7086 23.2533 49.2793 23.52C49.8553 23.7813 50.2766 24.1973 50.5433 24.768C50.682 25.0507 50.7673 25.3493 50.7993 25.664C50.8313 25.9787 50.8473 26.3173 50.8473 26.68V32H49.3673V30.024L49.6553 30.28C49.298 30.9413 48.842 31.4347 48.2873 31.76C47.738 32.08 47.0606 32.24 46.2553 32.24ZM46.5513 30.872C47.026 30.872 47.434 30.7893 47.7753 30.624C48.1166 30.4533 48.3913 30.2373 48.5993 29.976C48.8073 29.7147 48.9433 29.4427 49.0073 29.16C49.098 28.904 49.1486 28.616 49.1593 28.296C49.1753 27.976 49.1833 27.72 49.1833 27.528L49.7273 27.728C49.1993 27.808 48.7193 27.88 48.2873 27.944C47.8553 28.008 47.4633 28.072 47.1113 28.136C46.7646 28.1947 46.4553 28.2667 46.1833 28.352C45.954 28.432 45.7486 28.528 45.5673 28.64C45.3913 28.752 45.25 28.888 45.1433 29.048C45.042 29.208 44.9913 29.4027 44.9913 29.632C44.9913 29.856 45.0473 30.064 45.1593 30.256C45.2713 30.4427 45.442 30.592 45.6713 30.704C45.9006 30.816 46.194 30.872 46.5513 30.872ZM58.9887 32V27.752C58.9887 27.416 58.9594 27.072 58.9007 26.72C58.8474 26.3627 58.7407 26.032 58.5807 25.728C58.426 25.424 58.2047 25.1787 57.9167 24.992C57.634 24.8053 57.2634 24.712 56.8047 24.712C56.506 24.712 56.2234 24.7627 55.9567 24.864C55.69 24.96 55.4554 25.1173 55.2527 25.336C55.0554 25.5547 54.898 25.8427 54.7807 26.2C54.6687 26.5573 54.6127 26.992 54.6127 27.504L53.5727 27.112C53.5727 26.328 53.7194 25.6373 54.0127 25.04C54.306 24.4373 54.7274 23.968 55.2767 23.632C55.826 23.296 56.49 23.128 57.2687 23.128C57.866 23.128 58.3674 23.224 58.7727 23.416C59.178 23.608 59.506 23.8613 59.7567 24.176C60.0127 24.4853 60.2074 24.824 60.3407 25.192C60.474 25.56 60.5647 25.92 60.6127 26.272C60.6607 26.624 60.6847 26.9333 60.6847 27.2V32H58.9887ZM52.9167 32V23.36H54.4127V25.856H54.6127V32H52.9167ZM68.4116 32.24C67.7716 32.24 67.2356 32.1227 66.8036 31.888C66.3716 31.648 66.0436 31.3333 65.8196 30.944C65.6009 30.5493 65.4916 30.1173 65.4916 29.648C65.4916 29.2107 65.5689 28.8267 65.7236 28.496C65.8782 28.1653 66.1076 27.8853 66.4116 27.656C66.7156 27.4213 67.0889 27.232 67.5316 27.088C67.9156 26.976 68.3502 26.8773 68.8356 26.792C69.3209 26.7067 69.8302 26.6267 70.3636 26.552C70.9022 26.4773 71.4356 26.4027 71.9636 26.328L71.3556 26.664C71.3662 25.9867 71.2222 25.4853 70.9236 25.16C70.6302 24.8293 70.1236 24.664 69.4036 24.664C68.9502 24.664 68.5342 24.7707 68.1556 24.984C67.7769 25.192 67.5129 25.5387 67.3636 26.024L65.8036 25.544C66.0169 24.8027 66.4222 24.2133 67.0196 23.776C67.6222 23.3387 68.4222 23.12 69.4196 23.12C70.1929 23.12 70.8649 23.2533 71.4356 23.52C72.0116 23.7813 72.4329 24.1973 72.6996 24.768C72.8382 25.0507 72.9236 25.3493 72.9556 25.664C72.9876 25.9787 73.0036 26.3173 73.0036 26.68V32H71.5236V30.024L71.8116 30.28C71.4542 30.9413 70.9982 31.4347 70.4436 31.76C69.8942 32.08 69.2169 32.24 68.4116 32.24ZM68.7076 30.872C69.1822 30.872 69.5902 30.7893 69.9316 30.624C70.2729 30.4533 70.5476 30.2373 70.7556 29.976C70.9636 29.7147 71.0996 29.4427 71.1636 29.16C71.2542 28.904 71.3049 28.616 71.3156 28.296C71.3316 27.976 71.3396 27.72 71.3396 27.528L71.8836 27.728C71.3556 27.808 70.8756 27.88 70.4436 27.944C70.0116 28.008 69.6196 28.072 69.2676 28.136C68.9209 28.1947 68.6116 28.2667 68.3396 28.352C68.1102 28.432 67.9049 28.528 67.7236 28.64C67.5476 28.752 67.4062 28.888 67.2996 29.048C67.1982 29.208 67.1476 29.4027 67.1476 29.632C67.1476 29.856 67.2036 30.064 67.3156 30.256C67.4276 30.4427 67.5982 30.592 67.8276 30.704C68.0569 30.816 68.3502 30.872 68.7076 30.872ZM79.1369 32.24C78.3103 32.24 77.6169 32.04 77.0569 31.64C76.4969 31.2347 76.0729 30.688 75.7849 30C75.4969 29.312 75.3529 28.536 75.3529 27.672C75.3529 26.808 75.4943 26.032 75.7769 25.344C76.0649 24.656 76.4863 24.1147 77.0409 23.72C77.6009 23.32 78.2889 23.12 79.1049 23.12C79.9156 23.12 80.6143 23.32 81.2009 23.72C81.7929 24.1147 82.2489 24.656 82.5689 25.344C82.8889 26.0267 83.0489 26.8027 83.0489 27.672C83.0489 28.536 82.8889 29.3147 82.5689 30.008C82.2543 30.696 81.8036 31.24 81.2169 31.64C80.6356 32.04 79.9423 32.24 79.1369 32.24ZM75.0729 35.84V23.36H76.5609V29.576H76.7529V35.84H75.0729ZM78.9049 30.728C79.4383 30.728 79.8783 30.592 80.2249 30.32C80.5769 30.048 80.8383 29.6827 81.0089 29.224C81.1849 28.76 81.2729 28.2427 81.2729 27.672C81.2729 27.1067 81.1849 26.5947 81.0089 26.136C80.8383 25.6773 80.5743 25.312 80.2169 25.04C79.8596 24.768 79.4036 24.632 78.8489 24.632C78.3263 24.632 77.8943 24.76 77.5529 25.016C77.2169 25.272 76.9663 25.6293 76.8009 26.088C76.6409 26.5467 76.5609 27.0747 76.5609 27.672C76.5609 28.2693 76.6409 28.7973 76.8009 29.256C76.9609 29.7147 77.2143 30.0747 77.5609 30.336C77.9076 30.5973 78.3556 30.728 78.9049 30.728ZM88.8713 32.24C88.0446 32.24 87.3513 32.04 86.7913 31.64C86.2313 31.2347 85.8073 30.688 85.5193 30C85.2313 29.312 85.0873 28.536 85.0873 27.672C85.0873 26.808 85.2286 26.032 85.5113 25.344C85.7993 24.656 86.2206 24.1147 86.7753 23.72C87.3353 23.32 88.0233 23.12 88.8393 23.12C89.65 23.12 90.3486 23.32 90.9353 23.72C91.5273 24.1147 91.9833 24.656 92.3033 25.344C92.6233 26.0267 92.7833 26.8027 92.7833 27.672C92.7833 28.536 92.6233 29.3147 92.3033 30.008C91.9886 30.696 91.538 31.24 90.9513 31.64C90.37 32.04 89.6766 32.24 88.8713 32.24ZM84.8073 35.84V23.36H86.2953V29.576H86.4873V35.84H84.8073ZM88.6393 30.728C89.1726 30.728 89.6126 30.592 89.9593 30.32C90.3113 30.048 90.5726 29.6827 90.7433 29.224C90.9193 28.76 91.0073 28.2427 91.0073 27.672C91.0073 27.1067 90.9193 26.5947 90.7433 26.136C90.5726 25.6773 90.3086 25.312 89.9513 25.04C89.594 24.768 89.138 24.632 88.5833 24.632C88.0606 24.632 87.6286 24.76 87.2873 25.016C86.9513 25.272 86.7006 25.6293 86.5353 26.088C86.3753 26.5467 86.2953 27.0747 86.2953 27.672C86.2953 28.2693 86.3753 28.7973 86.5353 29.256C86.6953 29.7147 86.9486 30.0747 87.2953 30.336C87.642 30.5973 88.09 30.728 88.6393 30.728ZM94.7097 32V20.24H96.3817V32H94.7097ZM98.9441 21.944V20.32H100.616V21.944H98.9441ZM98.9441 32V23.36H100.616V32H98.9441ZM106.714 32.24C105.829 32.24 105.077 32.0427 104.458 31.648C103.84 31.2533 103.365 30.712 103.034 30.024C102.709 29.336 102.544 28.5547 102.538 27.68C102.544 26.7893 102.714 26.0027 103.05 25.32C103.386 24.632 103.866 24.0933 104.49 23.704C105.114 23.3147 105.864 23.12 106.738 23.12C107.682 23.12 108.488 23.3547 109.154 23.824C109.826 24.2933 110.269 24.936 110.482 25.752L108.818 26.232C108.653 25.7467 108.381 25.3707 108.002 25.104C107.629 24.832 107.2 24.696 106.714 24.696C106.165 24.696 105.714 24.8267 105.362 25.088C105.01 25.344 104.749 25.696 104.578 26.144C104.408 26.592 104.32 27.104 104.314 27.68C104.32 28.5707 104.522 29.2907 104.922 29.84C105.328 30.3893 105.925 30.664 106.714 30.664C107.253 30.664 107.688 30.5413 108.018 30.296C108.354 30.0453 108.61 29.688 108.786 29.224L110.482 29.624C110.2 30.4667 109.733 31.1147 109.082 31.568C108.432 32.016 107.642 32.24 106.714 32.24ZM114.443 32.24C113.803 32.24 113.267 32.1227 112.835 31.888C112.403 31.648 112.075 31.3333 111.851 30.944C111.632 30.5493 111.523 30.1173 111.523 29.648C111.523 29.2107 111.6 28.8267 111.755 28.496C111.909 28.1653 112.139 27.8853 112.443 27.656C112.747 27.4213 113.12 27.232 113.563 27.088C113.947 26.976 114.381 26.8773 114.867 26.792C115.352 26.7067 115.861 26.6267 116.395 26.552C116.933 26.4773 117.467 26.4027 117.995 26.328L117.387 26.664C117.397 25.9867 117.253 25.4853 116.955 25.16C116.661 24.8293 116.155 24.664 115.435 24.664C114.981 24.664 114.565 24.7707 114.187 24.984C113.808 25.192 113.544 25.5387 113.395 26.024L111.835 25.544C112.048 24.8027 112.453 24.2133 113.051 23.776C113.653 23.3387 114.453 23.12 115.451 23.12C116.224 23.12 116.896 23.2533 117.467 23.52C118.043 23.7813 118.464 24.1973 118.731 24.768C118.869 25.0507 118.955 25.3493 118.987 25.664C119.019 25.9787 119.035 26.3173 119.035 26.68V32H117.555V30.024L117.843 30.28C117.485 30.9413 117.029 31.4347 116.475 31.76C115.925 32.08 115.248 32.24 114.443 32.24ZM114.739 30.872C115.213 30.872 115.621 30.7893 115.963 30.624C116.304 30.4533 116.579 30.2373 116.787 29.976C116.995 29.7147 117.131 29.4427 117.195 29.16C117.285 28.904 117.336 28.616 117.347 28.296C117.363 27.976 117.371 27.72 117.371 27.528L117.915 27.728C117.387 27.808 116.907 27.88 116.475 27.944C116.043 28.008 115.651 28.072 115.299 28.136C114.952 28.1947 114.643 28.2667 114.371 28.352C114.141 28.432 113.936 28.528 113.755 28.64C113.579 28.752 113.437 28.888 113.331 29.048C113.229 29.208 113.179 29.4027 113.179 29.632C113.179 29.856 113.235 30.064 113.347 30.256C113.459 30.4427 113.629 30.592 113.859 30.704C114.088 30.816 114.381 30.872 114.739 30.872ZM126.056 32C125.512 32.1067 124.979 32.152 124.456 32.136C123.934 32.12 123.467 32.0187 123.056 31.832C122.646 31.6453 122.336 31.352 122.128 30.952C121.942 30.5947 121.84 30.232 121.824 29.864C121.814 29.4907 121.808 29.0693 121.808 28.6V20.96H123.488V28.52C123.488 28.8667 123.491 29.168 123.496 29.424C123.507 29.68 123.563 29.896 123.664 30.072C123.856 30.4027 124.16 30.592 124.576 30.64C124.998 30.6827 125.491 30.664 126.056 30.584V32ZM120.152 24.704V23.36H126.056V24.704H120.152ZM128.038 21.944V20.32H129.71V21.944H128.038ZM128.038 32V23.36H129.71V32H128.038ZM135.864 32.24C135 32.24 134.251 32.0453 133.616 31.656C132.982 31.2667 132.491 30.7307 132.144 30.048C131.803 29.36 131.632 28.568 131.632 27.672C131.632 26.7707 131.808 25.9787 132.16 25.296C132.512 24.608 133.006 24.0747 133.64 23.696C134.275 23.312 135.016 23.12 135.864 23.12C136.728 23.12 137.478 23.3147 138.112 23.704C138.747 24.0933 139.238 24.6293 139.584 25.312C139.931 25.9947 140.104 26.7813 140.104 27.672C140.104 28.5733 139.928 29.368 139.576 30.056C139.23 30.7387 138.739 31.2747 138.104 31.664C137.47 32.048 136.723 32.24 135.864 32.24ZM135.864 30.664C136.691 30.664 137.307 30.3867 137.712 29.832C138.123 29.272 138.328 28.552 138.328 27.672C138.328 26.7707 138.12 26.0507 137.704 25.512C137.294 24.968 136.68 24.696 135.864 24.696C135.304 24.696 134.843 24.824 134.48 25.08C134.118 25.3307 133.848 25.68 133.672 26.128C133.496 26.5707 133.408 27.0853 133.408 27.672C133.408 28.5787 133.616 29.304 134.032 29.848C134.448 30.392 135.059 30.664 135.864 30.664ZM147.926 32V27.752C147.926 27.416 147.897 27.072 147.838 26.72C147.785 26.3627 147.678 26.032 147.518 25.728C147.364 25.424 147.142 25.1787 146.854 24.992C146.572 24.8053 146.201 24.712 145.742 24.712C145.444 24.712 145.161 24.7627 144.894 24.864C144.628 24.96 144.393 25.1173 144.19 25.336C143.993 25.5547 143.836 25.8427 143.718 26.2C143.606 26.5573 143.55 26.992 143.55 27.504L142.51 27.112C142.51 26.328 142.657 25.6373 142.95 25.04C143.244 24.4373 143.665 23.968 144.214 23.632C144.764 23.296 145.428 23.128 146.206 23.128C146.804 23.128 147.305 23.224 147.71 23.416C148.116 23.608 148.444 23.8613 148.694 24.176C148.95 24.4853 149.145 24.824 149.278 25.192C149.412 25.56 149.502 25.92 149.55 26.272C149.598 26.624 149.622 26.9333 149.622 27.2V32H147.926ZM141.854 32V23.36H143.35V25.856H143.55V32H141.854Z" fill="#6366F1"/>
<path d="M170.293 31.293L171.707 32.707L178.414 26L171.707 19.293L170.293 20.707L174.586 25H165V27H174.586L170.293 31.293Z" fill="#6366F1"/>
</svg>
